<svg width="1326" height="848" viewBox="0 0 1326 848" fill="none" xmlns="http://www.w3.org/2000/svg">
<path fill-rule="evenodd" clip-rule="evenodd" d="M552.017 1164C555.878 1057.85 656.245 635.194 561.668 588.875C476.742 581.156 403.397 619.755 341.633 706.602L339.703 693.093C386.026 606.245 447.79 565.716 519.205 559.926C445.86 515.537 347.424 498.168 225.825 586.945L220.035 577.296C254.777 546.417 289.52 521.327 331.983 503.958C254.777 401.67 123.528 432.55 69.4847 527.117L63.6943 523.257C77.2052 467.289 119.668 430.62 196.873 417.11C158.271 403.6 110.017 403.6 57.9039 411.32V397.811L133.179 388.161C92.6463 357.282 77.2052 312.893 102.297 245.345L117.738 243.415C94.5764 318.683 119.668 361.142 177.572 390.091C276.009 405.53 333.913 444.129 366.725 496.238C476.742 484.658 553.948 521.327 613.782 581.156C604.131 436.41 524.996 351.492 349.354 420.97V407.46C426.559 361.142 499.904 365.001 575.179 405.53C528.856 332.192 438.14 266.574 212.314 220.255V208.676C347.424 222.185 463.231 251.135 536.576 309.033L550.087 206.746C523.065 135.338 469.022 112.178 405.328 116.038L407.258 102.528C440.07 100.599 470.952 102.528 499.904 114.108C501.834 79.3691 507.624 50.4199 524.996 33.0504L528.856 38.8402C517.275 73.5793 515.345 104.458 523.065 123.758C546.227 154.637 561.668 173.937 567.458 191.306C623.432 137.268 675.546 121.828 731.52 121.828L727.659 131.478C625.362 150.777 548.157 195.166 573.249 328.332C646.594 420.97 663.965 509.748 660.105 606.245C679.406 567.646 716.079 536.767 775.913 496.238C839.607 366.931 785.563 260.784 644.664 293.593L638.873 283.944C658.175 276.224 679.406 270.434 704.498 272.364C692.917 268.504 687.127 251.135 689.057 241.485C698.707 253.064 721.869 239.555 719.939 270.434C710.288 268.504 702.568 262.714 698.707 253.064C698.707 262.714 706.428 268.504 716.079 272.364H714.148C723.799 274.294 735.38 274.294 746.961 278.154C748.891 241.485 754.681 214.465 768.192 202.886H777.843C760.472 247.275 762.402 274.294 775.913 291.663C808.725 320.613 826.096 353.422 826.096 392.021C853.118 334.122 866.629 270.434 864.699 197.096H876.279C880.14 233.765 878.21 270.434 874.349 305.173C899.441 280.084 926.463 262.714 959.275 253.064C988.227 243.415 1011.39 222.185 1021.04 175.867L1030.69 177.796C1026.83 206.746 1017.18 229.905 997.878 249.205C1032.62 253.064 1059.64 266.574 1080.87 287.804L1078.94 297.453C1024.9 260.784 974.716 260.784 941.904 280.084C980.507 285.874 999.808 303.243 1013.32 324.473L1009.46 332.192C884 231.835 856.978 397.811 822.236 484.658C903.301 447.989 980.507 440.269 1055.78 438.339L1053.85 446.059C994.017 451.849 943.834 459.569 938.044 473.079C1202.47 532.907 1285.47 509.748 1270.03 399.741L1283.54 393.951C1298.98 469.219 1279.68 527.117 1146.5 536.767C1185.1 554.136 1215.98 573.436 1244.93 596.595L1243 606.245C1181.24 567.646 1115.62 538.697 1044.2 521.327C1123.34 612.035 1092.45 668.003 1030.69 720.112L1024.9 712.392C1119.48 639.054 1067.36 521.327 949.624 505.888C773.983 500.098 673.616 581.156 658.175 760.641C743.1 658.354 843.467 658.354 945.764 662.214L938.044 669.933C843.467 671.863 775.913 693.093 772.052 712.392C849.258 729.762 880.14 772.221 884 833.979H878.21C826.096 646.774 559.738 718.182 692.917 1164H552.017ZM1235.28 588.875C1250.72 596.595 1248.79 581.156 1258.45 579.226C1252.66 575.366 1239.14 575.366 1235.28 586.945C1241.07 581.156 1244.93 579.226 1248.79 581.156C1243 581.156 1239.14 585.016 1235.28 588.875ZM1225.63 598.525C1212.12 613.965 1229.49 613.965 1229.49 623.615C1235.28 619.755 1239.14 604.315 1227.56 598.525C1231.42 604.315 1231.42 610.105 1229.49 613.965C1229.49 608.175 1227.56 602.385 1225.63 598.525ZM1246.86 602.385C1248.79 619.755 1258.45 610.105 1266.17 615.895C1266.17 608.175 1258.45 598.525 1248.79 602.385C1254.59 604.315 1258.45 606.245 1260.38 610.105C1256.52 606.245 1252.66 604.315 1246.86 602.385ZM1192.82 579.226C1175.45 600.455 1198.61 604.315 1198.61 617.825C1208.26 610.105 1214.05 588.875 1196.68 581.156C1200.54 590.805 1202.47 598.525 1198.61 604.315C1200.54 594.665 1198.61 586.945 1192.82 579.226ZM1158.08 561.856C1136.85 586.945 1163.87 590.805 1165.8 606.245C1175.45 596.595 1183.17 571.506 1161.94 563.786C1167.73 573.436 1169.66 583.086 1165.8 590.805C1167.73 579.226 1163.87 569.576 1158.08 561.856ZM1210.19 571.506C1231.42 581.156 1227.56 563.786 1239.14 559.926C1231.42 554.136 1214.05 554.136 1210.19 569.576C1215.98 563.786 1221.77 559.926 1227.56 561.856C1221.77 563.786 1215.98 565.716 1210.19 571.506ZM1183.17 554.136C1206.33 565.716 1202.47 544.487 1215.98 540.627C1206.33 534.837 1187.03 532.907 1183.17 550.276C1190.89 544.487 1196.68 542.557 1202.47 544.487C1194.75 544.487 1188.96 548.347 1183.17 554.136ZM945.764 660.284C959.275 685.373 970.856 664.143 984.367 669.933C980.507 658.354 963.135 644.844 949.624 658.354C959.275 656.424 966.996 658.354 970.856 664.143C963.135 658.354 955.415 658.354 945.764 660.284ZM918.742 675.723C920.672 702.742 939.974 689.233 949.624 696.953C949.624 685.373 938.044 666.073 920.672 673.793C930.323 677.653 938.044 681.513 939.974 687.303C934.183 681.513 926.463 677.653 918.742 675.723ZM874.349 679.583C878.21 718.182 903.301 696.953 918.742 710.462C918.742 695.023 903.301 668.003 880.14 677.653C891.721 681.513 901.371 687.303 903.301 696.953C897.511 687.303 885.93 681.513 874.349 679.583ZM911.022 660.284C943.834 656.424 926.463 637.124 938.044 623.615C924.533 623.615 903.301 635.194 911.022 656.424C914.882 644.844 918.742 637.124 926.463 635.194C918.742 640.984 914.882 650.634 911.022 660.284ZM855.048 660.284C901.371 656.424 878.21 625.544 893.651 608.175C874.349 608.175 843.467 625.544 853.118 654.494C858.908 639.054 866.629 627.474 878.21 625.544C864.699 633.264 858.908 644.844 855.048 660.284ZM795.214 664.143C853.118 660.284 822.236 623.615 843.467 602.385C818.376 600.455 779.773 621.685 793.284 658.354C799.074 639.054 808.725 625.544 822.236 621.685C806.795 631.334 799.074 646.774 795.214 664.143ZM1053.85 702.742C1040.34 714.322 1055.78 718.182 1053.85 727.832C1059.64 723.972 1065.43 710.462 1055.78 704.672C1057.71 710.462 1057.71 714.322 1055.78 718.182C1057.71 712.392 1055.78 708.532 1053.85 702.742ZM1073.15 681.513C1057.71 698.883 1077.01 700.812 1077.01 712.392C1082.8 706.602 1088.59 689.233 1075.08 683.443C1078.94 691.163 1080.87 696.953 1077.01 700.812C1078.94 695.023 1077.01 687.303 1073.15 681.513ZM1084.73 662.214C1071.22 687.303 1094.38 683.443 1098.24 696.953C1104.03 687.303 1104.03 666.073 1086.66 664.143C1092.45 669.933 1096.31 677.653 1094.38 683.443C1094.38 675.723 1090.52 668.003 1084.73 662.214ZM1096.31 619.755C1082.8 646.774 1107.9 644.844 1111.76 658.354C1117.55 648.704 1119.48 625.544 1100.17 621.685C1105.97 629.404 1109.83 637.124 1107.9 644.844C1107.9 635.194 1102.1 627.474 1096.31 619.755ZM1088.59 571.506C1082.8 610.105 1113.69 596.595 1123.34 612.035C1129.13 596.595 1119.48 567.646 1094.38 571.506C1105.97 579.226 1113.69 586.945 1113.69 596.595C1109.83 585.016 1100.17 577.296 1088.59 571.506ZM1028.76 718.182C1013.32 702.742 1009.46 720.112 999.808 718.182C1005.6 725.902 1019.11 731.692 1026.83 720.112C1019.11 722.042 1013.32 723.972 1009.46 720.112C1017.18 722.042 1022.97 720.112 1028.76 718.182ZM1049.99 685.373C1028.76 662.214 1022.97 687.303 1007.53 685.373C1015.25 696.953 1036.48 704.672 1048.06 687.303C1038.41 691.163 1028.76 693.093 1022.97 687.303C1032.62 691.163 1040.34 689.233 1049.99 685.373ZM1067.36 648.704C1038.41 627.474 1036.48 656.424 1019.11 658.354C1030.69 668.003 1057.71 673.793 1065.43 652.564C1055.78 658.354 1046.13 662.214 1036.48 656.424C1048.06 658.354 1057.71 654.494 1067.36 648.704ZM1065.43 592.735C1026.83 592.735 1046.13 619.755 1032.62 633.264C1048.06 633.264 1075.08 621.685 1067.36 596.595C1061.57 610.105 1055.78 617.825 1046.13 619.755C1057.71 613.965 1061.57 604.315 1065.43 592.735ZM1032.62 542.557C988.227 569.576 1026.83 588.875 1019.11 613.965C1040.34 604.315 1063.5 571.506 1036.48 546.417C1040.34 565.716 1038.41 579.226 1026.83 588.875C1036.48 573.436 1036.48 557.996 1032.62 542.557ZM884 795.38C878.21 835.909 909.092 822.399 920.672 839.769C924.533 824.329 916.812 793.45 889.79 795.38C901.371 803.1 909.092 812.749 909.092 822.399C905.231 810.82 895.581 803.1 884 795.38ZM878.21 837.839C870.489 878.368 901.371 864.858 912.952 880.298C916.812 864.858 909.092 833.979 884 837.839C895.581 845.559 903.301 853.278 901.371 864.858C897.511 851.348 889.79 843.629 878.21 837.839ZM866.629 762.571C895.581 812.749 916.812 770.291 943.834 778.01C934.183 756.781 897.511 729.762 870.489 758.711C891.721 756.781 907.162 756.781 916.812 770.291C901.371 760.641 884 758.711 866.629 762.571ZM828.026 723.972C868.559 766.431 878.21 718.182 907.162 720.112C891.721 700.812 849.258 685.373 831.886 718.182C849.258 710.462 866.629 708.532 878.21 718.182C860.838 712.392 843.467 716.252 828.026 723.972ZM851.188 789.59C804.865 816.609 845.397 835.909 837.677 860.998C856.978 851.348 880.14 818.539 855.048 795.38C856.978 812.749 856.978 828.189 845.397 835.909C853.118 822.399 853.118 806.96 851.188 789.59ZM804.865 749.061C754.681 778.01 799.074 799.24 791.354 826.259C812.585 816.609 837.677 779.94 810.655 752.921C812.585 772.221 810.655 789.59 799.074 799.24C808.725 783.8 808.725 766.431 804.865 749.061ZM1270.03 498.168C1291.26 523.257 1298.98 496.238 1314.42 498.168C1306.7 488.518 1285.47 476.938 1273.89 494.308C1283.54 492.378 1293.19 490.448 1298.98 496.238C1289.33 492.378 1279.68 494.308 1270.03 498.168ZM1289.33 459.569C1322.14 467.289 1312.49 442.199 1326 432.55C1312.49 428.69 1289.33 434.48 1289.33 455.709C1297.05 446.059 1302.84 440.269 1312.49 440.269C1300.91 444.129 1295.12 449.919 1289.33 459.569ZM1291.26 422.9C1324.07 420.97 1306.7 399.741 1318.28 386.231C1304.77 386.231 1283.54 399.741 1291.26 419.04C1295.12 409.39 1298.98 401.67 1306.7 399.741C1298.98 403.6 1295.12 413.25 1291.26 422.9ZM1283.54 393.951C1314.42 390.091 1297.05 368.861 1308.63 357.282C1295.12 357.282 1273.89 368.861 1281.61 390.091C1285.47 378.511 1289.33 370.791 1297.05 368.861C1289.33 374.651 1285.47 384.301 1283.54 393.951ZM1271.96 393.951C1241.07 392.021 1258.45 370.791 1246.86 357.282C1260.38 357.282 1281.61 370.791 1273.89 390.091C1270.03 378.511 1266.17 370.791 1258.45 368.861C1266.17 374.651 1270.03 384.301 1271.96 393.951ZM1264.24 451.849C1219.84 446.059 1243 419.04 1229.49 401.67C1246.86 401.67 1277.75 419.04 1266.17 446.059C1262.31 430.62 1254.59 420.97 1243 417.11C1256.52 424.83 1262.31 438.339 1264.24 451.849ZM1219.84 496.238C1163.87 478.868 1200.54 447.989 1187.03 422.9C1210.19 426.76 1244.93 455.709 1223.7 488.518C1221.77 469.219 1215.98 453.779 1202.47 447.989C1214.05 461.499 1219.84 476.938 1219.84 496.238ZM1065.43 440.269C1065.43 459.569 1078.94 451.849 1086.66 457.639C1086.66 449.919 1080.87 436.41 1067.36 438.339C1075.08 442.199 1078.94 446.059 1078.94 449.919C1077.01 444.129 1071.22 442.199 1065.43 440.269ZM1055.78 436.41C1044.2 415.18 1063.5 417.11 1065.43 407.46C1071.22 413.25 1073.15 430.62 1057.71 434.48C1063.5 428.69 1065.43 422.9 1063.5 417.11C1063.5 424.83 1059.64 430.62 1055.78 436.41ZM1009.46 438.339C995.948 413.25 1021.04 415.18 1024.9 401.67C1030.69 411.32 1032.62 434.48 1013.32 438.339C1019.11 430.62 1022.97 422.9 1021.04 415.18C1021.04 424.83 1017.18 432.55 1009.46 438.339ZM959.275 444.129C941.904 413.25 972.786 415.18 976.646 397.811C984.367 409.39 986.297 438.339 963.135 442.199C970.856 432.55 974.716 424.83 972.786 415.18C972.786 426.76 966.996 436.41 959.275 444.129ZM1028.76 451.849C1026.83 482.728 1048.06 469.219 1057.71 478.868C1059.64 467.289 1049.99 446.059 1032.62 451.849C1040.34 455.709 1048.06 461.499 1048.06 469.219C1044.2 459.569 1036.48 455.709 1028.76 451.849ZM992.087 457.639C990.157 490.448 1013.32 476.938 1024.9 488.518C1026.83 475.009 1017.18 451.849 995.948 457.639C1005.6 461.499 1013.32 467.289 1015.25 476.938C1009.46 467.289 1001.74 461.499 992.087 457.639ZM1003.67 307.103C1017.18 295.523 1019.11 310.963 1026.83 310.963C1022.97 314.823 1009.46 320.613 1005.6 309.033C1011.39 310.963 1015.25 312.893 1019.11 310.963C1013.32 310.963 1009.46 310.963 1003.67 307.103ZM976.646 285.874C990.157 270.434 995.948 287.804 1005.6 285.874C999.808 293.593 986.297 299.383 978.576 287.804C984.367 289.733 992.087 291.663 995.948 287.804C988.227 289.733 982.437 287.804 976.646 285.874ZM1013.32 328.332C1001.74 345.702 1017.18 345.702 1019.11 355.352C1024.9 349.562 1026.83 334.122 1015.25 330.262C1019.11 336.052 1021.04 341.842 1017.18 345.702C1019.11 339.912 1017.18 334.122 1013.32 328.332ZM978.576 314.823C965.065 332.192 982.437 334.122 984.367 343.772C990.157 337.982 994.017 320.613 980.507 316.753C984.367 322.543 986.297 328.332 982.437 334.122C984.367 326.402 982.437 320.613 978.576 314.823ZM947.694 303.243C938.044 326.402 959.275 322.543 963.135 336.052C968.926 326.402 968.926 305.173 951.555 303.243C957.345 310.963 961.205 316.753 959.275 322.543C959.275 314.823 953.485 309.033 947.694 303.243ZM1080.87 293.593C1073.15 312.893 1090.52 309.033 1094.38 318.683C1098.24 310.963 1098.24 295.523 1084.73 293.593C1088.59 297.453 1092.45 303.243 1090.52 309.033C1090.52 301.313 1086.66 297.453 1080.87 293.593ZM1073.15 280.084C1078.94 262.714 1088.59 274.294 1096.31 270.434C1094.38 278.154 1084.73 287.804 1075.08 280.084C1080.87 280.084 1084.73 280.084 1088.59 274.294C1082.8 278.154 1078.94 280.084 1073.15 280.084ZM1048.06 262.714C1055.78 247.275 1063.5 258.854 1071.22 254.994C1069.29 262.714 1059.64 272.364 1049.99 264.644C1055.78 264.644 1061.57 262.714 1063.5 258.854C1059.64 262.714 1053.85 264.644 1048.06 262.714ZM1026.83 253.064C1034.55 233.765 1046.13 247.275 1053.85 243.415C1051.92 251.135 1040.34 262.714 1028.76 254.994C1036.48 253.064 1042.27 253.064 1046.13 247.275C1040.34 251.135 1034.55 253.064 1026.83 253.064ZM1042.27 282.014C1032.62 307.103 1053.85 303.243 1057.71 314.823C1063.5 305.173 1063.5 285.874 1046.13 283.944C1051.92 289.733 1055.78 295.523 1053.85 303.243C1053.85 293.593 1048.06 287.804 1042.27 282.014ZM1011.39 270.434C999.808 297.453 1024.9 293.593 1030.69 307.103C1036.48 297.453 1034.55 274.294 1015.25 272.364C1022.97 278.154 1026.83 285.874 1024.9 293.593C1024.9 283.944 1019.11 276.224 1011.39 270.434ZM1013.32 237.625C1032.62 247.275 1028.76 229.905 1038.41 226.045C1030.69 222.185 1015.25 222.185 1013.32 235.695C1019.11 231.835 1022.97 227.975 1028.76 229.905C1021.04 229.905 1017.18 233.765 1013.32 237.625ZM1022.97 216.395C1042.27 226.045 1038.41 208.676 1048.06 204.816C1040.34 200.956 1024.9 200.956 1022.97 214.465C1028.76 210.606 1032.62 206.746 1038.41 208.676C1032.62 208.676 1026.83 212.536 1022.97 216.395ZM1030.69 197.096C1049.99 204.816 1046.13 187.446 1055.78 183.586C1048.06 179.726 1032.62 179.726 1030.69 193.236C1036.48 189.376 1040.34 185.516 1046.13 187.446C1040.34 187.446 1034.55 191.306 1030.69 197.096ZM1026.83 175.867C1046.13 173.937 1036.48 160.427 1042.27 152.707C1034.55 152.707 1021.04 160.427 1024.9 173.937C1026.83 166.217 1030.69 162.357 1036.48 160.427C1030.69 164.287 1026.83 170.077 1026.83 175.867ZM1015.25 191.306C990.157 183.586 1007.53 170.077 999.808 158.497C1011.39 160.427 1026.83 173.937 1017.18 187.446C1015.25 179.726 1013.32 172.007 1007.53 168.147C1013.32 175.867 1015.25 181.656 1015.25 191.306ZM999.808 218.325C974.716 210.606 992.087 197.096 984.367 185.516C995.948 189.376 1011.39 200.956 1001.74 216.395C999.808 206.746 997.878 200.956 992.087 197.096C997.878 202.886 999.808 210.606 999.808 218.325ZM966.996 245.345C945.764 222.185 972.786 218.325 972.786 202.886C982.437 212.536 990.157 235.695 970.856 243.415C974.716 233.765 976.646 226.045 972.786 218.325C974.716 227.975 972.786 237.625 966.996 245.345ZM868.559 195.166C853.118 172.007 876.279 172.007 878.21 158.497C884 168.147 887.86 187.446 870.489 193.236C876.279 185.516 878.21 177.796 876.279 172.007C876.279 179.726 872.419 187.446 868.559 195.166ZM862.769 210.606C835.747 214.465 847.328 195.166 835.747 185.516C847.328 183.586 866.629 191.306 862.769 208.676C858.908 199.026 853.118 195.166 847.328 193.236C855.048 197.096 858.908 202.886 862.769 210.606ZM860.838 243.415C835.747 245.345 845.397 226.045 835.747 218.325C845.397 214.465 864.699 222.185 862.769 239.555C856.978 231.835 853.118 226.045 845.397 226.045C853.118 227.975 858.908 235.695 860.838 243.415ZM856.978 283.944C829.956 285.874 841.537 266.574 829.956 258.854C841.537 256.924 860.838 262.714 856.978 280.084C853.118 272.364 847.328 266.574 841.537 266.574C849.258 270.434 853.118 276.224 856.978 283.944ZM882.07 231.835C911.022 227.975 895.581 208.676 905.231 199.026C893.651 199.026 874.349 210.606 880.14 227.975C884 218.325 887.86 210.606 895.581 208.676C887.86 214.465 884 222.185 882.07 231.835ZM882.07 276.224C914.882 276.224 901.371 253.064 912.952 241.485C899.441 241.485 876.279 251.135 882.07 272.364C885.93 260.784 891.721 253.064 899.441 253.064C891.721 256.924 885.93 266.574 882.07 276.224ZM640.803 293.593C617.642 270.434 613.782 297.453 598.341 297.453C606.061 307.103 629.223 314.823 638.873 297.453C629.223 301.313 619.572 301.313 613.782 297.453C623.432 299.383 633.083 297.453 640.803 293.593ZM673.616 272.364C673.616 239.555 652.384 254.994 640.803 243.415C638.873 256.924 648.524 278.154 669.755 274.294C660.105 268.504 652.384 262.714 652.384 254.994C656.245 264.644 663.965 268.504 673.616 272.364ZM683.266 289.733C648.524 297.453 669.755 318.683 660.105 332.192C673.616 330.262 696.777 314.823 685.196 293.593C683.266 305.173 679.406 314.823 669.755 318.683C679.406 310.963 681.336 301.313 683.266 289.733ZM725.729 293.593C683.266 303.243 710.288 328.332 696.777 345.702C716.079 343.772 743.1 324.473 729.589 297.453C725.729 312.893 721.869 324.473 710.288 328.332C721.869 318.683 725.729 307.103 725.729 293.593ZM745.031 247.275C718.009 243.415 733.45 226.045 725.729 214.465C737.31 216.395 754.681 227.975 746.961 245.345C743.1 235.695 741.17 227.975 733.45 226.045C741.17 231.835 743.1 239.555 745.031 247.275ZM772.052 200.956C802.934 193.236 781.703 179.726 787.493 166.217C775.913 170.077 756.611 183.586 770.122 199.026C770.122 189.376 773.983 181.656 779.773 179.726C773.983 185.516 772.052 193.236 772.052 200.956ZM752.751 220.255C727.659 212.536 745.031 199.026 739.24 185.516C748.891 189.376 764.332 202.886 754.681 218.325C754.681 208.676 750.821 200.956 745.031 197.096C750.821 204.816 752.751 212.536 752.751 220.255ZM775.913 218.325C799.074 231.835 797.144 208.676 810.655 204.816C801.004 199.026 779.773 197.096 775.913 214.465C783.633 208.676 789.424 206.746 797.144 208.676C787.493 208.676 781.703 212.536 775.913 218.325ZM768.192 262.714C804.865 280.084 799.074 245.345 818.376 239.555C802.934 231.835 772.052 231.835 768.192 256.924C779.773 249.205 789.424 243.415 799.074 245.345C785.563 247.275 775.913 253.064 768.192 262.714ZM337.773 691.163C316.541 664.143 308.821 691.163 291.45 689.233C299.17 700.812 322.332 712.392 333.913 693.093C324.262 696.953 314.611 696.953 308.821 691.163C318.472 695.023 328.122 695.023 337.773 691.163ZM364.795 644.844C343.563 619.755 335.843 646.774 318.472 642.914C326.192 654.494 349.354 666.073 362.865 648.704C351.284 652.564 341.633 652.564 335.843 646.774C345.493 650.634 355.144 648.704 364.795 644.844ZM399.537 604.315C372.515 571.506 362.865 606.245 341.633 602.385C349.354 617.825 380.236 631.334 395.677 610.105C382.166 613.965 370.585 613.965 360.934 606.245C374.445 612.035 386.026 610.105 399.537 604.315ZM339.703 704.672C306.891 723.972 335.843 739.411 328.122 756.781C343.563 750.991 360.934 727.832 343.563 708.532C345.493 722.042 343.563 733.622 335.843 739.411C341.633 729.762 341.633 718.182 339.703 704.672ZM395.677 652.564C362.865 671.863 389.886 685.373 384.096 704.672C399.537 696.953 416.908 673.793 399.537 656.424C399.537 669.933 399.537 679.583 391.817 685.373C397.607 675.723 397.607 664.143 395.677 652.564ZM447.79 612.035C407.258 635.194 442 650.634 434.279 673.793C451.651 666.073 472.882 637.124 451.651 615.895C453.581 631.334 451.651 644.844 442 652.564C449.721 639.054 449.721 625.544 447.79 612.035ZM731.52 125.688C750.821 100.599 758.541 125.688 773.983 121.828C768.192 133.408 746.961 146.917 733.45 129.548C745.031 131.478 752.751 131.478 758.541 125.688C748.891 129.548 741.17 129.548 731.52 125.688ZM700.638 121.828C685.196 90.9488 712.218 94.8087 718.009 79.3691C723.799 90.9488 725.729 116.038 704.498 119.898C710.288 112.178 716.079 104.458 712.218 94.8087C712.218 106.388 706.428 114.108 700.638 121.828ZM652.384 133.408C638.873 104.458 665.895 108.318 669.755 92.8788C677.476 102.528 677.476 127.618 656.245 131.478C663.965 123.758 667.825 116.038 665.895 108.318C663.965 117.968 660.105 125.688 652.384 133.408ZM617.642 144.987C604.131 116.038 631.153 119.898 635.013 104.458C642.734 116.038 642.734 139.198 621.502 143.057C629.223 135.338 633.083 127.618 631.153 119.898C631.153 129.548 625.362 137.268 617.642 144.987ZM669.755 156.567C689.057 195.166 706.428 162.357 727.659 170.077C719.939 154.637 694.847 133.408 673.616 152.707C689.057 150.777 700.638 152.707 706.428 162.357C694.847 154.637 683.266 152.707 669.755 156.567ZM619.572 175.867C638.873 214.465 658.175 183.586 677.476 191.306C671.686 173.937 644.664 152.707 625.362 172.007C638.873 172.007 652.384 173.937 658.175 183.586C646.594 175.867 633.083 173.937 619.572 175.867ZM216.175 583.086C179.502 592.735 202.664 613.965 193.013 629.404C208.454 627.474 229.686 610.105 218.105 588.875C216.175 600.455 212.314 610.105 202.664 613.965C212.314 606.245 216.175 596.595 216.175 583.086ZM243.197 556.066C233.546 525.187 218.105 546.417 204.594 538.697C206.524 552.206 223.895 569.576 241.266 557.996C229.686 557.996 221.965 554.136 218.105 546.417C225.825 554.136 233.546 556.066 243.197 556.066ZM289.52 521.327C276.009 480.798 252.847 507.818 235.476 498.168C239.336 515.537 260.568 540.627 283.729 523.257C270.218 523.257 258.638 519.397 252.847 509.748C262.498 517.467 276.009 521.327 289.52 521.327ZM270.218 565.716C225.825 575.366 254.777 600.455 241.266 619.755C260.568 617.825 287.59 596.595 272.148 569.576C270.218 585.016 264.428 596.595 254.777 600.455C264.428 590.805 268.288 579.226 270.218 565.716ZM320.402 538.697C276.009 548.347 304.961 575.366 291.45 592.735C310.751 590.805 337.773 569.576 324.262 544.487C320.402 559.926 314.611 571.506 304.961 575.366C314.611 565.716 318.472 552.206 320.402 538.697ZM430.419 370.791C420.769 322.543 389.886 351.492 370.585 337.982C372.515 357.282 393.747 390.091 422.699 374.651C407.258 370.791 393.747 365.001 389.886 353.422C399.537 365.001 413.048 368.861 430.419 370.791ZM376.376 390.091C366.725 341.842 337.773 370.791 316.541 357.282C318.472 376.581 341.633 409.39 370.585 393.951C353.214 390.091 341.633 384.301 335.843 372.721C347.424 384.301 360.934 388.161 376.376 390.091ZM416.908 401.67C372.515 411.32 401.467 438.339 387.956 455.709C407.258 453.779 434.279 432.55 420.769 407.46C416.908 422.9 411.118 434.48 401.467 438.339C411.118 428.69 416.908 415.18 416.908 401.67ZM474.812 397.811C416.908 411.32 453.581 444.129 438.14 469.219C461.301 465.359 497.974 438.339 478.672 403.6C474.812 424.83 469.022 438.339 453.581 444.129C469.022 432.55 472.882 415.18 474.812 397.811ZM501.834 83.229C469.022 87.0889 482.533 61.9996 469.022 52.3498C482.533 50.4199 505.694 58.1397 501.834 79.3691C496.044 69.7194 490.253 61.9996 482.533 61.9996C490.253 65.8595 496.044 73.5793 501.834 83.229ZM526.926 33.0504C559.738 34.9803 544.297 11.8209 557.808 0.241244C544.297 -1.6887 521.135 7.96104 524.996 29.1905C530.786 17.6108 536.576 11.8209 544.297 9.89098C534.646 15.6808 530.786 23.4006 526.926 33.0504ZM511.485 50.4199C478.672 56.2097 490.253 31.1204 476.742 23.4006C488.323 19.5407 513.415 25.3306 511.485 46.56C505.694 36.9103 497.974 31.1204 490.253 31.1204C499.904 34.9803 505.694 42.7001 511.485 50.4199ZM480.603 129.548C438.14 114.108 447.79 150.777 428.489 160.427C443.93 168.147 478.672 164.287 480.603 135.338C470.952 146.917 459.371 152.707 447.79 150.777C461.301 148.847 472.882 141.127 480.603 129.548ZM449.721 251.135C476.742 191.306 422.699 200.956 411.118 168.147C397.607 193.236 397.607 243.415 440.07 249.205C426.559 233.765 416.908 216.395 420.769 200.956C422.699 220.255 434.279 237.625 449.721 251.135ZM351.284 226.045C378.306 166.217 324.262 175.867 314.611 143.057C301.1 168.147 301.1 218.325 343.563 224.115C328.122 206.746 318.472 191.306 324.262 175.867C326.192 195.166 335.843 212.536 351.284 226.045ZM210.384 214.465C214.245 173.937 183.362 189.376 171.782 172.007C167.921 189.376 177.572 220.255 204.594 214.465C193.013 208.676 183.362 200.956 183.362 189.376C189.153 200.956 198.803 208.676 210.384 214.465ZM241.266 229.905C202.664 214.465 210.384 249.205 191.083 256.924C206.524 264.644 239.336 262.714 241.266 233.765C231.616 245.345 221.965 251.135 210.384 249.205C223.895 247.275 233.546 239.555 241.266 229.905ZM310.751 247.275C254.777 227.975 268.288 276.224 241.266 287.804C262.498 299.383 308.821 293.593 310.751 254.994C297.24 270.434 283.729 280.084 268.288 276.224C287.59 274.294 301.1 262.714 310.751 247.275ZM393.747 276.224C326.192 251.135 341.633 309.033 308.821 324.473C335.843 336.052 391.817 332.192 393.747 283.944C376.376 303.243 360.934 314.823 341.633 310.963C364.795 307.103 380.236 293.593 393.747 276.224ZM403.397 106.388C393.747 56.2097 364.795 87.0889 343.563 71.6493C345.493 92.8788 368.655 123.758 397.607 108.318C380.236 104.458 368.655 98.6686 362.865 87.0889C374.445 98.6686 387.956 104.458 403.397 106.388ZM414.978 121.828C440.07 162.357 399.537 158.497 393.747 183.586C382.166 166.217 378.306 129.548 409.188 121.828C399.537 135.338 395.677 148.847 399.537 158.497C399.537 144.987 405.328 131.478 414.978 121.828ZM521.135 81.2991C550.087 94.8087 544.297 67.7894 559.738 63.9295C548.157 56.2097 523.065 56.2097 521.135 77.4392C528.856 69.7194 536.576 65.8595 544.297 67.7894C534.646 67.7894 526.926 73.5793 521.135 81.2991ZM106.157 239.555C175.642 227.975 135.109 183.586 156.341 156.567C127.389 158.497 81.0655 189.376 102.297 231.835C108.087 206.746 115.808 189.376 133.179 183.586C115.808 197.096 108.087 218.325 106.157 239.555ZM59.8341 525.187C19.3013 565.716 65.6245 575.366 65.6245 604.315C84.9258 588.875 100.367 546.417 65.6245 529.047C73.345 546.417 75.2751 563.786 67.5546 575.366C71.4148 557.996 67.5546 540.627 59.8341 525.187ZM96.5065 453.779C57.9039 513.607 34.7424 457.639 0 467.289C13.5109 440.269 59.8341 411.32 90.7162 447.989C67.5546 442.199 46.3231 444.129 34.7424 457.639C54.0437 447.989 75.2751 447.989 96.5065 453.779ZM119.668 473.079C69.4847 523.257 129.319 534.837 127.389 569.576C150.55 552.206 169.852 500.098 127.389 476.938C137.039 500.098 140.9 519.397 129.319 534.837C135.109 513.607 129.319 492.378 119.668 473.079ZM90.7162 390.091C42.4629 397.811 57.9039 361.142 38.6026 347.632C57.9039 341.842 94.5764 351.492 90.7162 384.301C81.0655 370.791 71.4148 361.142 57.9039 361.142C73.345 365.001 82.9956 376.581 90.7162 390.091ZM84.9258 322.543C27.0218 332.192 48.2533 287.804 23.1616 272.364C46.3231 264.644 90.7162 276.224 86.8559 314.823C75.2751 297.453 63.6943 285.874 48.2533 287.804C65.6245 293.593 77.2052 307.103 84.9258 322.543ZM146.69 368.861C191.083 361.142 164.061 334.122 177.572 316.753C160.201 316.753 131.249 337.982 144.76 363.072C146.69 349.562 152.48 337.982 164.061 334.122C152.48 341.842 148.62 355.352 146.69 368.861ZM117.738 318.683C160.201 310.963 135.109 285.874 148.62 268.504C131.249 270.434 104.227 289.733 115.808 314.823C119.668 299.383 125.459 289.733 135.109 285.874C125.459 293.593 119.668 305.173 117.738 318.683ZM443.93 100.599C474.812 48.4899 424.629 50.4199 416.908 21.4707C401.467 42.7001 397.607 89.0189 436.21 96.7387C424.629 81.2991 416.908 65.8595 422.699 50.4199C422.699 69.7194 430.419 85.159 443.93 100.599ZM552.017 158.497C598.341 139.198 563.598 116.038 573.249 92.8788C553.948 98.6686 526.926 127.618 548.157 152.707C548.157 135.338 552.017 121.828 563.598 116.038C553.948 127.618 552.017 143.057 552.017 158.497ZM270.218 212.536C289.52 168.147 248.987 173.937 241.266 150.777C231.616 168.147 231.616 206.746 264.428 210.606C252.847 199.026 245.127 187.446 248.987 173.937C250.917 189.376 258.638 202.886 270.218 212.536Z" fill="white" fill-opacity="0.39"/>
</svg>
