<svg width="324" height="314" viewBox="0 0 324 314" fill="none" xmlns="http://www.w3.org/2000/svg">
<path fill-rule="evenodd" clip-rule="evenodd" d="M260.797 37.9917C248.538 46.6076 248.858 59.1735 257.269 67.1502C263.725 56.5913 255.301 53.9452 259.059 44.1149C256.426 54.367 264.121 56.5913 259.059 67.1502C272.43 61.2572 261.13 45.1503 260.81 37.9917H260.797Z" fill="white"/>
<path fill-rule="evenodd" clip-rule="evenodd" d="M290.531 66.0892C278.438 57.2433 266.639 61.564 261.769 72.0846C273.836 74.8202 273.645 65.9998 284.165 66.4088C273.619 67.2014 273.964 75.2037 262.344 73.7847C272.213 84.5738 283.846 68.697 290.531 66.102V66.0892Z" fill="white"/>
<path fill-rule="evenodd" clip-rule="evenodd" d="M285.341 88.4471C277.186 75.8812 264.607 75.7406 256.323 83.8324C266.627 90.6714 269.592 82.3623 279.269 86.4657C269.132 83.4617 266.614 91.0677 256.247 85.6092C261.641 99.1978 278.157 88.4855 285.329 88.4343L285.341 88.4471Z" fill="white"/>
<path fill-rule="evenodd" clip-rule="evenodd" d="M236.458 42.7215C229.223 55.8371 235.026 66.9968 246.071 70.4867C247.247 58.1636 238.516 59.4803 237.57 48.9981C239.705 59.3653 247.605 57.9974 247.682 69.7069C257.129 58.5471 239.897 49.0236 236.458 42.7215Z" fill="white"/>
<path fill-rule="evenodd" clip-rule="evenodd" d="M214.637 51.9894C210.7 66.4472 218.971 75.9196 230.527 76.6866C228.763 64.4402 220.582 67.7894 217.207 57.8185C221.719 67.3804 229.07 64.1846 231.907 75.5489C238.452 62.4844 219.457 57.2944 214.637 51.9894Z" fill="white"/>
<path fill-rule="evenodd" clip-rule="evenodd" d="M305.769 111.38C293.676 102.534 281.877 106.855 277.007 117.376C289.074 120.111 288.882 111.291 299.403 111.7C288.857 112.492 289.202 120.495 277.582 119.076C287.45 129.865 299.083 113.988 305.769 111.393V111.38Z" fill="white"/>
<path fill-rule="evenodd" clip-rule="evenodd" d="M294.213 138.66C280.739 145.217 269.899 138.851 266.985 127.628C279.346 127.091 277.582 135.745 288 137.215C277.761 134.556 279.538 126.746 267.841 126.068C279.474 117.209 288.09 134.901 294.213 138.66Z" fill="white"/>
<path fill-rule="evenodd" clip-rule="evenodd" d="M268.416 154.702C253.946 150.816 249.932 138.902 255.083 128.522C264.773 136.218 257.768 141.6 264.671 149.538C258.688 140.82 265.144 136.077 256.758 127.896C271.344 128.842 266.256 147.851 268.416 154.69V154.702Z" fill="white"/>
<path fill-rule="evenodd" clip-rule="evenodd" d="M275.69 92.9723C260.746 93.9566 254.483 104.861 257.512 116.046C268.519 110.383 262.702 103.749 271.011 97.3058C263.444 104.695 268.851 110.6 259.033 116.979C273.517 118.909 272.238 99.2616 275.69 92.9723Z" fill="white"/>
<path fill-rule="evenodd" clip-rule="evenodd" d="M216.261 110.767C217.808 95.8613 228.942 90.0194 239.999 93.4709C233.927 104.247 227.51 98.1879 220.76 106.254C228.43 98.9676 234.132 104.592 240.881 95.0304C242.249 109.578 222.678 107.558 216.261 110.767Z" fill="white"/>
<path fill-rule="evenodd" clip-rule="evenodd" d="M203.989 85.6731C213.052 73.7464 225.605 74.5261 233.262 83.2187C222.473 89.278 220.147 80.7643 210.176 84.1519C220.518 81.9021 222.461 89.6742 233.199 85.0084C226.82 98.1623 211.135 86.2611 203.989 85.6731Z" fill="white"/>
<path fill-rule="evenodd" clip-rule="evenodd" d="M58.3752 26.717C54.4508 41.1748 62.7088 50.6472 74.2648 51.4142C72.5007 39.1679 64.3194 42.5171 60.9319 32.5462C65.4571 42.108 72.7947 38.9122 75.6326 50.2765C82.1648 37.1993 63.1817 32.022 58.3625 26.7042L58.3752 26.717Z" fill="white"/>
<path fill-rule="evenodd" clip-rule="evenodd" d="M99.2048 29.3758C84.2485 30.2706 77.9208 41.1364 80.8865 52.3345C91.9184 46.7482 86.1404 40.0626 94.5006 33.671C86.8818 41.0085 92.2636 46.9527 82.4077 53.2804C96.8911 55.2874 95.715 35.6396 99.2048 29.3758Z" fill="white"/>
<path fill-rule="evenodd" clip-rule="evenodd" d="M109.47 49.9057C95.1654 45.4316 85.399 53.3444 84.1846 64.8621C96.4948 63.5582 93.4524 55.2619 103.538 52.245C93.8103 56.3996 96.7377 63.865 85.2711 66.281C98.0927 73.299 103.973 54.5205 109.47 49.9057Z" fill="white"/>
<path fill-rule="evenodd" clip-rule="evenodd" d="M42.6647 45.8917C45.4642 60.6052 57.0458 65.4884 67.7837 61.1293C60.8296 50.9027 54.9366 57.4861 47.5351 50.0207C55.793 56.6296 60.9958 50.5448 68.5251 59.5058C68.6657 44.8818 49.3375 48.5634 42.6775 45.8917H42.6647Z" fill="white"/>
<path fill-rule="evenodd" clip-rule="evenodd" d="M49.1458 70.2183C55.3456 83.858 67.7581 85.8777 77.1538 79.0898C67.9754 70.7935 63.8209 78.5785 54.8598 73.0689C64.4345 77.543 68.0649 70.3972 77.4861 77.3385C74.1753 63.098 56.2532 71.2281 49.1458 70.2183Z" fill="white"/>
<path fill-rule="evenodd" clip-rule="evenodd" d="M61.7116 106.599C61.0724 91.63 71.2351 84.2286 82.6761 86.031C78.2403 97.587 71.005 92.5121 65.5082 101.486C72.0277 93.164 78.4832 97.9066 83.7754 87.4499C87.2525 101.652 67.5919 102.496 61.7116 106.599Z" fill="white"/>
<path fill-rule="evenodd" clip-rule="evenodd" d="M128.504 42.2485C113.548 43.1434 107.22 54.0091 110.186 65.2072C121.217 59.6209 115.439 52.9353 123.8 46.5437C116.181 53.8813 121.563 59.8255 111.707 66.1532C126.19 68.1601 125.014 48.5123 128.504 42.2485Z" fill="white"/>
<path fill-rule="evenodd" clip-rule="evenodd" d="M138.743 77.5685C129.68 65.6418 117.127 66.4216 109.47 75.1142C120.259 81.1734 122.585 72.6598 132.556 76.0473C122.215 73.7975 120.272 81.5697 109.534 76.9038C115.912 90.0577 131.597 78.1566 138.743 77.5685Z" fill="white"/>
<path fill-rule="evenodd" clip-rule="evenodd" d="M210.969 32.1498C196.766 36.9308 193.494 49.062 199.285 59.1097C208.476 50.8261 201.151 45.8918 207.543 37.5316C202.11 46.6077 208.859 50.9412 200.998 59.621C215.507 57.7802 209.23 39.1167 210.969 32.1626V32.1498Z" fill="white"/>
<path fill-rule="evenodd" clip-rule="evenodd" d="M181.516 39.0655C173.258 51.5674 178.154 63.149 188.892 67.4953C191.039 55.3129 182.232 55.9265 182.13 45.4059C183.433 55.901 191.41 55.1595 190.554 66.8434C200.857 56.4634 184.431 45.6105 181.516 39.0527V39.0655Z" fill="white"/>
<path fill-rule="evenodd" clip-rule="evenodd" d="M171.635 55.901C183.945 64.4402 183.702 77.0189 175.342 85.0467C168.822 74.5262 177.234 71.8289 173.424 62.0242C176.109 72.2507 168.426 74.5262 173.565 85.0595C160.142 79.2432 171.366 63.0724 171.647 55.901H171.635Z" fill="white"/>
<path fill-rule="evenodd" clip-rule="evenodd" d="M148.369 50.9539C163.019 54.0986 167.633 65.7952 163.019 76.4181C152.958 69.2211 159.669 63.4943 152.383 55.9138C158.8 64.3124 152.587 69.3873 161.382 77.1212C146.771 76.9294 150.887 57.6779 148.382 50.9539H148.369Z" fill="white"/>
<path fill-rule="evenodd" clip-rule="evenodd" d="M131.713 87.1176C139.868 74.5517 152.447 74.3983 160.73 82.5029C150.427 89.3419 147.461 81.0328 137.785 85.1362C147.922 82.1322 150.44 89.7382 160.807 84.2797C155.413 97.8683 138.897 87.156 131.725 87.1048L131.713 87.1176Z" fill="white"/>
<path fill-rule="evenodd" clip-rule="evenodd" d="M151.706 115.535C148.088 101 156.55 91.7069 168.132 91.1827C166.099 103.391 157.995 99.8753 154.403 109.757C159.12 100.284 166.406 103.646 169.487 92.346C175.738 105.551 156.64 110.319 151.706 115.535Z" fill="white"/>
<path fill-rule="evenodd" clip-rule="evenodd" d="M1.88623 172.906C8.08609 186.546 20.4986 188.565 29.8943 181.777C20.7159 173.481 16.5614 181.266 7.60033 175.756C17.175 180.231 20.8054 173.085 30.2266 180.026C26.9158 165.786 8.9937 173.916 1.88623 172.906Z" fill="white"/>
<path fill-rule="evenodd" clip-rule="evenodd" d="M35.0075 148.899C24.0651 159.138 26.1359 171.538 35.57 178.262C40.4915 166.91 31.7861 165.466 34.1382 155.201C32.9622 165.709 40.8878 166.847 37.334 178.019C49.7593 170.324 36.3242 155.942 35.0075 148.899Z" fill="white"/>
<path fill-rule="evenodd" clip-rule="evenodd" d="M60.9702 149.564C47.1132 155.239 44.6333 167.575 51.0632 177.214C59.7047 168.355 52.0731 163.906 57.915 155.15C53.083 164.558 60.0882 168.444 52.8018 177.61C67.1573 174.836 59.6919 156.62 60.9702 149.564Z" fill="white"/>
<path fill-rule="evenodd" clip-rule="evenodd" d="M13.6851 206.5C28.5264 208.52 36.8482 199.099 36.1196 187.53C24.2056 190.866 28.5775 198.549 19.1435 203.202C28.0406 197.475 23.9244 190.611 34.8157 186.328C21.0098 181.534 18.3382 201.042 13.6978 206.513L13.6851 206.5Z" fill="white"/>
<path fill-rule="evenodd" clip-rule="evenodd" d="M36.158 211.907C50.7692 208.558 55.2177 196.81 50.4496 186.239C40.4787 193.576 47.2794 199.214 40.0952 206.884C46.3973 198.396 40.1208 193.41 48.8006 185.561C34.1893 185.957 38.574 205.145 36.158 211.907Z" fill="white"/>
<path fill-rule="evenodd" clip-rule="evenodd" d="M36.452 227.707C51.2933 229.727 59.6152 220.306 58.8866 208.737C46.9726 212.074 51.3445 219.756 41.9105 224.409C50.8076 218.683 46.6914 211.818 57.5827 207.536C43.7768 202.742 41.1051 222.249 36.4648 227.72L36.452 227.707Z" fill="white"/>
<path fill-rule="evenodd" clip-rule="evenodd" d="M68.8575 231.964C80.0428 222.006 78.2915 209.555 69.0364 202.588C63.8336 213.812 72.5007 215.474 69.8929 225.675C71.3246 215.193 63.4246 213.863 67.2595 202.793C54.6425 210.169 67.7197 224.882 68.8575 231.964Z" fill="white"/>
<path fill-rule="evenodd" clip-rule="evenodd" d="M45.4897 132.294C51.6896 145.933 64.1021 147.953 73.4978 141.165C64.3194 132.869 60.1649 140.654 51.2038 135.144C60.7785 139.618 64.4089 132.472 73.8301 139.414C70.5193 125.173 52.5972 133.303 45.4897 132.294Z" fill="white"/>
<path fill-rule="evenodd" clip-rule="evenodd" d="M58.746 121.428C71.3374 129.532 82.8679 124.508 87.0992 113.732C74.8912 111.725 75.607 120.52 65.0864 120.737C75.5687 119.318 74.7378 111.342 86.4216 112.07C75.9266 101.895 65.2654 118.436 58.746 121.428Z" fill="white"/>
<path fill-rule="evenodd" clip-rule="evenodd" d="M89.9242 137.445C84.0184 123.678 90.883 113.144 102.234 110.767C102.183 123.141 93.6314 120.968 91.6627 131.309C94.8074 121.21 102.528 123.358 103.756 111.7C112.052 123.742 93.9637 131.514 89.937 137.445H89.9242Z" fill="white"/>
<path fill-rule="evenodd" clip-rule="evenodd" d="M69.3049 153.041C83.9545 156.185 88.5692 167.882 83.9545 178.505C73.8941 171.308 80.6053 165.581 73.3189 158.001C79.736 166.412 73.5234 171.474 82.3182 179.208C67.707 179.016 71.8232 159.765 69.3177 153.041H69.3049Z" fill="white"/>
<path fill-rule="evenodd" clip-rule="evenodd" d="M110.786 152.517C122.994 143.824 122.598 131.258 114.148 123.332C107.757 133.93 116.194 136.525 112.499 146.381C115.069 136.116 107.361 133.93 112.359 123.345C99.0131 129.315 110.416 145.358 110.786 152.517Z" fill="white"/>
<path fill-rule="evenodd" clip-rule="evenodd" d="M32.387 96.0659C43.5339 106.075 55.7163 102.931 61.5966 92.9596C49.8616 89.0352 49.1713 97.8428 38.753 96.3983C49.3247 96.654 49.7721 88.6517 61.2003 91.2211C52.4566 79.4989 39.3027 94.1485 32.387 96.0787V96.0659Z" fill="white"/>
<path fill-rule="evenodd" clip-rule="evenodd" d="M31.5688 105.001C34.3684 119.715 45.95 124.598 56.6879 120.239C49.7338 110.012 43.8407 116.596 36.4393 109.118C44.6972 115.739 49.9 109.642 57.4293 118.616C57.5699 103.992 38.2289 107.673 31.5688 105.001Z" fill="white"/>
<path fill-rule="evenodd" clip-rule="evenodd" d="M156.768 27.9058C171.417 31.0505 176.032 42.7471 171.417 53.37C161.357 46.173 168.068 40.4462 160.782 32.8657C167.199 41.2643 160.986 46.3392 169.781 54.0731C155.17 53.8813 159.286 34.6298 156.78 27.9058H156.768Z" fill="white"/>
<path fill-rule="evenodd" clip-rule="evenodd" d="M138.168 37.9917C127.213 48.2055 129.245 60.6052 138.654 67.3675C143.601 56.0288 134.896 54.5588 137.273 44.3066C136.072 54.8144 143.997 55.9777 140.418 67.1247C152.869 59.4547 139.459 45.048 138.168 37.9917Z" fill="white"/>
<path fill-rule="evenodd" clip-rule="evenodd" d="M10.7577 132.294C16.9576 145.933 29.3701 147.953 38.7657 141.165C29.5874 132.869 25.4328 140.654 16.4718 135.144C26.0464 139.618 29.6769 132.472 39.0981 139.414C35.7872 125.173 17.8652 133.303 10.7577 132.294Z" fill="white"/>
<path fill-rule="evenodd" clip-rule="evenodd" d="M232.495 23.4955C218.293 28.2765 215.021 40.4077 220.812 50.4554C230.003 42.1718 222.678 37.2375 229.07 28.8773C223.637 37.9534 230.386 42.2869 222.525 50.9667C237.034 49.1259 230.757 30.4624 232.495 23.5083V23.4955Z" fill="white"/>
<path fill-rule="evenodd" clip-rule="evenodd" d="M314.091 91.9625C301.998 83.1165 290.199 87.4373 285.328 97.9579C297.396 100.693 297.204 91.873 307.725 92.2821C297.179 93.0747 297.524 101.077 285.904 99.658C295.772 110.447 307.405 94.5703 314.091 91.9753V91.9625Z" fill="white"/>
<path fill-rule="evenodd" clip-rule="evenodd" d="M250.264 169.454C235.793 165.568 231.78 153.654 236.931 143.274C246.621 150.97 239.616 156.352 246.519 164.29C240.536 155.572 246.992 150.829 238.606 142.648C253.191 143.594 248.104 162.603 250.264 169.442V169.454Z" fill="white"/>
<path fill-rule="evenodd" clip-rule="evenodd" d="M279.883 176.664C265.297 180.09 256.119 171.5 255.748 159.918C267.931 162.104 264.3 170.17 274.143 173.89C264.748 169.032 268.199 161.81 256.937 158.576C270.232 152.491 274.744 171.653 279.883 176.664Z" fill="white"/>
<path fill-rule="evenodd" clip-rule="evenodd" d="M297.409 164.213C282.823 167.639 273.645 159.049 273.274 147.467C285.456 149.653 281.826 157.719 291.669 161.439C282.273 156.582 285.725 149.359 274.463 146.125C287.757 140.04 292.27 159.202 297.409 164.213Z" fill="white"/>
<path fill-rule="evenodd" clip-rule="evenodd" d="M322.962 132.677C310.869 141.523 299.07 137.202 294.2 126.682C306.267 123.946 306.076 132.766 316.596 132.357C306.05 131.565 306.395 123.563 294.775 124.982C304.644 114.192 316.277 130.069 322.962 132.664V132.677Z" fill="white"/>
<path fill-rule="evenodd" clip-rule="evenodd" d="M210.969 111.7C196.766 116.481 193.494 128.612 199.285 138.66C208.476 130.376 201.151 125.442 207.543 117.082C202.11 126.158 208.859 130.491 200.998 139.171C215.507 137.33 209.23 118.667 210.969 111.713V111.7Z" fill="white"/>
<path fill-rule="evenodd" clip-rule="evenodd" d="M213.64 99.364C201.547 90.518 189.748 94.8387 184.878 105.359C196.945 108.095 196.754 99.2745 207.274 99.6835C196.728 100.476 197.073 108.478 185.453 107.059C195.322 117.848 206.955 101.972 213.64 99.3767V99.364Z" fill="white"/>
<path fill-rule="evenodd" clip-rule="evenodd" d="M109.789 14.6879C98.8341 24.9017 100.867 37.3014 110.275 44.0638C115.222 32.725 106.517 31.255 108.895 21.0028C107.693 31.5106 115.618 32.6739 112.039 43.8209C124.49 36.1509 111.08 21.7443 109.789 14.6879Z" fill="white"/>
<path fill-rule="evenodd" clip-rule="evenodd" d="M141.236 13.1796C126.28 14.0744 119.952 24.9401 122.918 36.1382C133.95 30.552 128.172 23.8663 136.532 17.4747C128.913 24.8123 134.295 30.7565 124.439 37.0842C138.922 39.0912 137.746 19.4433 141.236 13.1796Z" fill="white"/>
<path fill-rule="evenodd" clip-rule="evenodd" d="M182.462 11.1086C196.664 15.8896 199.937 28.0208 194.146 38.0685C184.955 29.7849 192.279 24.8506 185.888 16.4904C191.321 25.5665 184.571 29.9 192.433 38.5798C177.924 36.739 184.2 18.0755 182.462 11.1214V11.1086Z" fill="white"/>
<path fill-rule="evenodd" clip-rule="evenodd" d="M289.867 187.082C286.492 201.681 274.731 206.117 264.185 201.336C271.535 191.378 277.16 198.191 284.856 191.02C276.355 197.309 271.382 191.02 263.508 199.687C263.929 185.075 283.104 189.498 289.867 187.095V187.082Z" fill="white"/>
<path fill-rule="evenodd" clip-rule="evenodd" d="M252.655 170.106C265.4 177.968 265.834 190.534 257.934 199.009C250.852 188.859 259.11 185.715 254.777 176.127C258.011 186.2 250.469 188.885 256.157 199.124C242.454 194.049 252.77 177.29 252.667 170.119L252.655 170.106Z" fill="white"/>
<path fill-rule="evenodd" clip-rule="evenodd" d="M227.318 175.884C242.032 178.722 246.902 190.304 242.517 201.029C232.291 194.049 238.9 188.182 231.434 180.768C238.043 189.025 231.933 194.228 240.881 201.77C226.27 201.885 229.964 182.557 227.318 175.897V175.884Z" fill="white"/>
<path fill-rule="evenodd" clip-rule="evenodd" d="M284.97 222.339C270.819 227.26 260.797 219.667 259.225 208.188C271.561 209.108 268.8 217.494 278.975 220.178C269.119 216.343 271.804 208.788 260.273 206.743C272.865 199.316 279.346 217.903 284.983 222.339H284.97Z" fill="white"/>
<path fill-rule="evenodd" clip-rule="evenodd" d="M266.192 236.745C251.21 236.362 244.524 225.713 247.107 214.426C258.33 219.641 252.77 226.506 261.347 232.616C253.486 225.534 258.663 219.424 248.59 213.441C262.996 210.936 262.485 230.609 266.192 236.758V236.745Z" fill="white"/>
<path fill-rule="evenodd" clip-rule="evenodd" d="M250.239 236.605C236.088 241.526 226.066 233.933 224.493 222.454C236.829 223.374 234.068 231.76 244.23 234.444C234.387 230.596 237.059 223.042 225.529 220.996C238.12 213.569 244.601 232.156 250.239 236.592V236.605Z" fill="white"/>
<path fill-rule="evenodd" clip-rule="evenodd" d="M221.323 252.584C208.386 245.029 207.645 232.488 215.328 223.821C222.652 233.792 214.484 237.142 219.06 246.614C215.583 236.63 223.061 233.754 217.117 223.668C230.949 228.398 221.042 245.412 221.323 252.584Z" fill="white"/>
<path fill-rule="evenodd" clip-rule="evenodd" d="M205.74 171.487C200.307 185.446 207.53 195.737 218.945 197.731C218.472 185.369 209.997 187.824 207.683 177.559C211.16 187.543 218.805 185.139 220.441 196.734C228.328 184.423 209.984 177.278 205.753 171.474L205.74 171.487Z" fill="white"/>
<path fill-rule="evenodd" clip-rule="evenodd" d="M191.244 184.615C185.811 198.575 193.034 208.865 204.449 210.859C203.976 198.498 195.501 200.952 193.187 190.687C196.664 200.671 204.308 198.268 205.945 209.862C213.832 197.552 195.488 190.406 191.257 184.602L191.244 184.615Z" fill="white"/>
<path fill-rule="evenodd" clip-rule="evenodd" d="M133.553 291.675C128.683 310.568 106.964 302.873 91.65 309.737C87.0863 311.783 82.1648 312.857 76.9748 313.368C128.248 313.368 178.819 313.368 230.092 313.368C225.593 311.565 221.093 309.776 216.606 307.973C168.618 303.103 177.694 277.473 171.507 247.394C171.059 245.208 171.098 244.351 171.558 242.383C172.811 237.269 170.842 238.739 176.364 235.991C178.09 235.135 179.777 234.879 181.388 234.15C182.462 233.652 182.654 232.885 183.983 232.246C185.198 231.67 186.642 231.121 187.908 230.558C191.091 229.152 194.222 227.631 197.367 226.122C203.26 223.285 208.399 221.457 214.714 219.641C221.783 217.609 229.057 215.896 236.228 214.26C250.673 210.974 267.47 197.079 258.356 201.4C241.201 209.543 216.785 214.26 217.488 210.834C220.901 204.902 228.456 196.312 227.702 193.039C214.535 203.611 218.447 209.785 189.25 220.101C182.347 222.543 175.099 224.371 168.132 224.627C164.617 172.075 208.501 168.01 235.129 135.528C247.362 120.584 285.252 117.976 268.007 118.309C231.115 119.025 247.337 132.102 256.132 69.4257L249.037 89.6743C246.813 94.4297 225.311 65.3095 235.947 81.6848C240.229 88.2809 249.612 89.8022 241.853 108.53C226.436 145.742 169.883 165.862 165.844 164.699C160.257 163.088 159.733 138.046 177.131 112.032C183.625 98.0345 202.647 81.557 200.282 63.5454C196.575 75.8557 188.061 84.3437 185.504 88.9968C181.03 97.1269 181.03 93.9439 162.814 80.0997L162.648 82.145L173.156 91.7708C179.368 102.662 166.598 115.752 156.001 126.094C141.837 139.912 145.697 128.165 123.455 112.083C107.667 100.668 99.7034 88.7284 108.434 66.3194C107.552 65.514 106.466 65.9359 104.932 68.8249L98.962 88.1531C92.0846 82.2473 75.7221 67.6488 78.5855 57.5117C79.0074 56.0161 57.6082 56.0033 118.712 119.677C131.061 132.575 141.722 151.941 145.135 169.416C145.991 173.826 146.362 177.712 145.902 182.199C145.467 186.482 145.378 190.828 144.93 195.085C144.854 195.813 144.751 196.504 144.624 197.22C144.406 198.46 144.176 199.342 143.857 200.53C143.179 203.061 143.192 204.762 143.627 207.293C144.342 211.46 144.215 210.923 143.09 207.408C142.22 204.672 142.323 202.934 142.08 200.236C141.965 198.881 141.977 197.501 141.99 196.146C142.003 194.561 143.857 193.039 141.568 190.675C140.801 190.291 139.485 190.751 138.628 190.879C137.094 191.096 134.755 190.572 133.144 190.329C122.394 188.693 112.026 187.44 101.122 187.402C96.3286 187.389 92.238 187.389 87.4315 186.788C79.3269 185.766 70.6088 183.644 62.6448 181.624C61.6733 181.381 60.689 181.125 59.7175 180.883C46.3207 177.431 24.5253 182.659 34.3684 182.762C52.8912 182.966 75.019 189.601 72.3473 192.426C66.0068 196.35 54.7576 200.85 53.3259 204.199C70.2125 200.403 70.9411 192.963 100.279 196.58C117.536 198.715 134.141 205.196 133.438 225.867C133.08 236.438 140.635 264.242 133.566 291.7L133.553 291.675Z" fill="white"/>
<path fill-rule="evenodd" clip-rule="evenodd" d="M21.828 68.2751C24.6275 82.9886 36.2091 87.8718 46.947 83.5127C39.993 73.2862 34.0999 79.8695 26.6984 72.3913C34.9564 79.0131 40.1591 72.9155 47.6885 81.8893C47.8291 67.2653 28.4881 70.9468 21.828 68.2751Z" fill="white"/>
<path fill-rule="evenodd" clip-rule="evenodd" d="M7.75371 107.545C7.11455 92.576 17.2772 85.1745 28.7182 86.977C24.2824 98.533 17.0471 93.4581 11.5503 102.432C18.0698 94.11 24.5253 98.8526 29.8175 88.3959C33.2946 102.598 13.634 103.442 7.75371 107.545Z" fill="white"/>
<path fill-rule="evenodd" clip-rule="evenodd" d="M8.89136 110.767C11.6909 125.48 23.2725 130.363 34.0104 126.004C27.0563 115.778 21.1632 122.361 13.7618 114.883C22.0197 121.505 27.2225 115.407 34.7518 124.381C34.8924 109.757 15.5514 113.438 8.89136 110.767Z" fill="white"/>
<path fill-rule="evenodd" clip-rule="evenodd" d="M0.198791 146.866C-1.51416 161.746 8.08604 169.863 19.6293 168.892C16.0372 157.055 8.45675 161.593 3.61191 152.248C9.51776 161.017 16.3056 156.761 20.8181 167.562C25.3178 153.654 5.75949 151.392 0.198791 146.866Z" fill="white"/>
<path fill-rule="evenodd" clip-rule="evenodd" d="M312.186 183.631C298.713 190.189 287.872 183.823 284.958 172.599C297.319 172.062 295.555 180.716 305.973 182.186C295.734 179.528 297.511 171.717 285.814 171.04C297.447 162.181 306.063 179.873 312.186 183.631Z" fill="white"/>
<path fill-rule="evenodd" clip-rule="evenodd" d="M323.422 152.491C311.329 161.337 299.531 157.016 294.66 146.496C306.728 143.76 306.536 152.581 317.056 152.171C306.51 151.379 306.855 143.377 295.235 144.796C305.091 134.006 316.737 149.883 323.422 152.478V152.491Z" fill="white"/>
<path fill-rule="evenodd" clip-rule="evenodd" d="M172.159 0C161.203 10.2138 163.236 22.6135 172.644 29.3758C177.591 18.0371 168.886 16.5671 171.264 6.31491C170.062 16.8227 177.988 17.986 174.408 29.133C186.859 21.463 173.45 7.05634 172.159 0Z" fill="white"/>
<path fill-rule="evenodd" clip-rule="evenodd" d="M150.235 0C161.664 9.6769 160.232 22.1661 151.143 29.3631C145.659 18.2672 154.288 16.3881 151.424 6.26378C153.124 16.7077 145.263 18.2417 149.366 29.2097C136.57 22.1405 149.277 7.12025 150.235 0Z" fill="white"/>
<path fill-rule="evenodd" clip-rule="evenodd" d="M93.0945 157.4C107.744 160.544 112.359 172.241 107.744 182.864C97.6837 175.667 104.395 169.94 97.1084 162.36C103.526 170.771 97.3129 175.833 106.108 183.567C91.4966 183.375 95.6128 164.124 93.1073 157.4H93.0945Z" fill="white"/>
<path fill-rule="evenodd" clip-rule="evenodd" d="M77.4861 139.286C80.2856 153.999 91.8672 158.883 102.605 154.524C95.651 144.297 89.758 150.88 82.3565 143.402C90.6145 150.024 95.8172 143.926 103.347 152.9C103.487 138.276 84.1461 141.958 77.4861 139.286Z" fill="white"/>
<path fill-rule="evenodd" clip-rule="evenodd" d="M138.743 100.757C132.531 87.1176 120.118 85.1107 110.735 91.8986C119.926 100.195 124.081 92.3971 133.042 97.9067C123.455 93.4325 119.837 100.591 110.403 93.6626C113.727 107.903 131.649 99.7475 138.743 100.757Z" fill="white"/>
</svg>
