<svg width="9" height="14" viewBox="0 0 9 14" fill="none" xmlns="http://www.w3.org/2000/svg">
<path d="M3.25705 6.99994L8.20705 11.9499C8.30256 12.0422 8.37874 12.1525 8.43115 12.2745C8.48356 12.3965 8.51115 12.5278 8.5123 12.6605C8.51345 12.7933 8.48815 12.925 8.43787 13.0479C8.38759 13.1708 8.31334 13.2824 8.21944 13.3763C8.12555 13.4702 8.0139 13.5445 7.891 13.5948C7.76811 13.645 7.63643 13.6703 7.50365 13.6692C7.37087 13.668 7.23965 13.6404 7.11764 13.588C6.99564 13.5356 6.8853 13.4594 6.79305 13.3639L1.13605 7.70694C0.948577 7.51941 0.843262 7.2651 0.843262 6.99994C0.843262 6.73477 0.948577 6.48046 1.13605 6.29294L6.79305 0.635936C6.98165 0.453778 7.23425 0.352984 7.49645 0.355262C7.75865 0.357541 8.00946 0.46271 8.19487 0.648118C8.38027 0.833526 8.48544 1.08434 8.48772 1.34654C8.49 1.60873 8.38921 1.86133 8.20705 2.04994L3.25705 6.99994Z" fill="black"/>
</svg>
